<?xml version="1.0" encoding="utf-8"?>
<!DOCTYPE svg PUBLIC "-//W3C//DTD SVG 1.1//EN" "http://www.w3.org/Graphics/SVG/1.1/DTD/svg11.dtd">
<svg version="1.1" id="Layer_1" xmlns="http://www.w3.org/2000/svg" xmlns:xlink="http://www.w3.org/1999/xlink" x="0px" y="0px"
	 width="26px" height="34px" viewBox="0 0 33.036 43.586" enable-background="new 0 0 33.036 43.586" xml:space="preserve">
<g>
	<path fill="#FFFFFF" d="M16.714,35.502c-2.792-3.571-6.423-8.298-8.603-11.456l-0.108-0.157l-0.12-0.148
		c-1.648-2.037-2.52-4.5-2.52-7.122c0-6.251,5.085-11.337,11.336-11.337s11.337,5.086,11.337,11.337c0,2.567-0.84,4.99-2.43,7.007
		l-0.097,0.122l-0.089,0.128C23.238,27.028,19.542,31.861,16.714,35.502z"/>
	<path fill="#007FA2" d="M16.699,10.281c3.494,0,6.337,2.843,6.337,6.337c0,1.811-0.738,3.126-1.356,3.91l-0.192,0.245l-0.177,0.256
		c-1.197,1.729-2.872,3.991-4.605,6.278c-1.68-2.211-3.302-4.398-4.478-6.103l-0.217-0.314l-0.24-0.297
		c-0.642-0.792-1.407-2.126-1.407-3.976C10.363,13.124,13.205,10.281,16.699,10.281 M16.699,0.281
		c-9.022,0-16.336,7.314-16.336,16.337c0,3.891,1.363,7.462,3.634,10.268c4.046,5.862,12.733,16.7,12.733,16.7
		s8.789-11.067,12.803-16.865c2.192-2.78,3.504-6.287,3.504-10.103C33.036,7.595,25.722,0.281,16.699,0.281L16.699,0.281z"/>
</g>
</svg>
